<mxfile host="app.diagrams.net" agent="Mozilla/5.0 (Macintosh; Intel Mac OS X 10_15_7) AppleWebKit/605.1.15 (KHTML, like Gecko) Version/18.6 Safari/605.1.15" version="28.2.0">
  <diagram name="Page-1" id="csDANiCiOCTRiBoL_9_u">
    <mxGraphModel dx="960" dy="683" grid="1" gridSize="10" guides="1" tooltips="1" connect="1" arrows="1" fold="1" page="1" pageScale="1" pageWidth="850" pageHeight="1100" math="0" shadow="0">
      <root>
        <mxCell id="0" />
        <mxCell id="1" parent="0" />
        <mxCell id="VJpb041sf1zviSYWMkZE-19" style="edgeStyle=orthogonalEdgeStyle;rounded=0;orthogonalLoop=1;jettySize=auto;html=1;entryX=0.5;entryY=0;entryDx=0;entryDy=0;endArrow=open;endFill=0;" edge="1" parent="1" source="VJpb041sf1zviSYWMkZE-1" target="VJpb041sf1zviSYWMkZE-5">
          <mxGeometry relative="1" as="geometry" />
        </mxCell>
        <mxCell id="VJpb041sf1zviSYWMkZE-1" value="AbstractRecipeService" style="swimlane;fontStyle=1;align=center;verticalAlign=top;childLayout=stackLayout;horizontal=1;startSize=26;horizontalStack=0;resizeParent=1;resizeParentMax=0;resizeLast=0;collapsible=1;marginBottom=0;whiteSpace=wrap;html=1;" vertex="1" parent="1">
          <mxGeometry x="280" y="80" width="215" height="60" as="geometry" />
        </mxCell>
        <mxCell id="VJpb041sf1zviSYWMkZE-3" value="" style="line;strokeWidth=1;fillColor=none;align=left;verticalAlign=middle;spacingTop=-1;spacingLeft=3;spacingRight=3;rotatable=0;labelPosition=right;points=[];portConstraint=eastwest;strokeColor=inherit;" vertex="1" parent="VJpb041sf1zviSYWMkZE-1">
          <mxGeometry y="26" width="215" height="8" as="geometry" />
        </mxCell>
        <mxCell id="VJpb041sf1zviSYWMkZE-4" value="~ GetRecipe(): List&amp;lt;Recipe&amp;gt;" style="text;strokeColor=none;fillColor=none;align=left;verticalAlign=top;spacingLeft=4;spacingRight=4;overflow=hidden;rotatable=0;points=[[0,0.5],[1,0.5]];portConstraint=eastwest;whiteSpace=wrap;html=1;" vertex="1" parent="VJpb041sf1zviSYWMkZE-1">
          <mxGeometry y="34" width="215" height="26" as="geometry" />
        </mxCell>
        <mxCell id="VJpb041sf1zviSYWMkZE-5" value="Recipe" style="swimlane;fontStyle=0;childLayout=stackLayout;horizontal=1;startSize=26;fillColor=none;horizontalStack=0;resizeParent=1;resizeParentMax=0;resizeLast=0;collapsible=1;marginBottom=0;whiteSpace=wrap;html=1;" vertex="1" parent="1">
          <mxGeometry x="670" y="150" width="140" height="78" as="geometry" />
        </mxCell>
        <mxCell id="VJpb041sf1zviSYWMkZE-6" value="+ Id: Guid" style="text;strokeColor=none;fillColor=none;align=left;verticalAlign=top;spacingLeft=4;spacingRight=4;overflow=hidden;rotatable=0;points=[[0,0.5],[1,0.5]];portConstraint=eastwest;whiteSpace=wrap;html=1;" vertex="1" parent="VJpb041sf1zviSYWMkZE-5">
          <mxGeometry y="26" width="140" height="26" as="geometry" />
        </mxCell>
        <mxCell id="VJpb041sf1zviSYWMkZE-7" value="+ Title: String" style="text;strokeColor=none;fillColor=none;align=left;verticalAlign=top;spacingLeft=4;spacingRight=4;overflow=hidden;rotatable=0;points=[[0,0.5],[1,0.5]];portConstraint=eastwest;whiteSpace=wrap;html=1;" vertex="1" parent="VJpb041sf1zviSYWMkZE-5">
          <mxGeometry y="52" width="140" height="26" as="geometry" />
        </mxCell>
        <mxCell id="VJpb041sf1zviSYWMkZE-9" value="ObjectRecipeService" style="swimlane;fontStyle=1;align=center;verticalAlign=top;childLayout=stackLayout;horizontal=1;startSize=26;horizontalStack=0;resizeParent=1;resizeParentMax=0;resizeLast=0;collapsible=1;marginBottom=0;whiteSpace=wrap;html=1;" vertex="1" parent="1">
          <mxGeometry x="80" y="240" width="160" height="34" as="geometry" />
        </mxCell>
        <mxCell id="VJpb041sf1zviSYWMkZE-11" value="" style="line;strokeWidth=1;fillColor=none;align=left;verticalAlign=middle;spacingTop=-1;spacingLeft=3;spacingRight=3;rotatable=0;labelPosition=right;points=[];portConstraint=eastwest;strokeColor=inherit;" vertex="1" parent="VJpb041sf1zviSYWMkZE-9">
          <mxGeometry y="26" width="160" height="8" as="geometry" />
        </mxCell>
        <mxCell id="VJpb041sf1zviSYWMkZE-18" style="edgeStyle=orthogonalEdgeStyle;rounded=0;orthogonalLoop=1;jettySize=auto;html=1;entryX=0.643;entryY=1.006;entryDx=0;entryDy=0;endArrow=open;endFill=0;entryPerimeter=0;" edge="1" parent="1" source="VJpb041sf1zviSYWMkZE-13" target="VJpb041sf1zviSYWMkZE-4">
          <mxGeometry relative="1" as="geometry" />
        </mxCell>
        <mxCell id="VJpb041sf1zviSYWMkZE-13" value="Factory" style="swimlane;fontStyle=0;childLayout=stackLayout;horizontal=1;startSize=26;fillColor=none;horizontalStack=0;resizeParent=1;resizeParentMax=0;resizeLast=0;collapsible=1;marginBottom=0;whiteSpace=wrap;html=1;" vertex="1" parent="1">
          <mxGeometry x="400" y="280" width="250" height="52" as="geometry" />
        </mxCell>
        <mxCell id="VJpb041sf1zviSYWMkZE-16" value="+ Instance: AbstractRecipeService" style="text;strokeColor=none;fillColor=none;align=left;verticalAlign=top;spacingLeft=4;spacingRight=4;overflow=hidden;rotatable=0;points=[[0,0.5],[1,0.5]];portConstraint=eastwest;whiteSpace=wrap;html=1;" vertex="1" parent="VJpb041sf1zviSYWMkZE-13">
          <mxGeometry y="26" width="250" height="26" as="geometry" />
        </mxCell>
        <mxCell id="VJpb041sf1zviSYWMkZE-17" style="edgeStyle=orthogonalEdgeStyle;rounded=0;orthogonalLoop=1;jettySize=auto;html=1;entryX=0.45;entryY=1.038;entryDx=0;entryDy=0;endArrow=block;endFill=0;entryPerimeter=0;" edge="1" parent="1" source="VJpb041sf1zviSYWMkZE-9" target="VJpb041sf1zviSYWMkZE-4">
          <mxGeometry relative="1" as="geometry" />
        </mxCell>
        <mxCell id="VJpb041sf1zviSYWMkZE-20" value="CONFIG" style="shape=card;whiteSpace=wrap;html=1;" vertex="1" parent="1">
          <mxGeometry x="720" y="300" width="80" height="100" as="geometry" />
        </mxCell>
        <mxCell id="VJpb041sf1zviSYWMkZE-21" value="SC" style="text;html=1;align=center;verticalAlign=middle;whiteSpace=wrap;rounded=0;" vertex="1" parent="1">
          <mxGeometry x="435" y="140" width="60" height="30" as="geometry" />
        </mxCell>
        <mxCell id="VJpb041sf1zviSYWMkZE-22" value="DC" style="text;html=1;align=center;verticalAlign=middle;whiteSpace=wrap;rounded=0;" vertex="1" parent="1">
          <mxGeometry x="750" y="228" width="60" height="30" as="geometry" />
        </mxCell>
        <mxCell id="VJpb041sf1zviSYWMkZE-23" value="S" style="text;html=1;align=center;verticalAlign=middle;whiteSpace=wrap;rounded=0;" vertex="1" parent="1">
          <mxGeometry x="590" y="332" width="60" height="30" as="geometry" />
        </mxCell>
        <mxCell id="VJpb041sf1zviSYWMkZE-24" value="S" style="text;html=1;align=center;verticalAlign=middle;whiteSpace=wrap;rounded=0;" vertex="1" parent="1">
          <mxGeometry x="180" y="274" width="60" height="30" as="geometry" />
        </mxCell>
        <mxCell id="VJpb041sf1zviSYWMkZE-25" value="IHM" style="text;html=1;align=center;verticalAlign=middle;whiteSpace=wrap;rounded=0;" vertex="1" parent="1">
          <mxGeometry x="740" y="400" width="60" height="30" as="geometry" />
        </mxCell>
      </root>
    </mxGraphModel>
  </diagram>
</mxfile>
